# xmcd
#
# Track frame offsets:
#	150
#	14019
#	26292
#	39060
#	54162
#	66839
#	78402
#	94590
#	110527
#	127495
#	140653
#	153658
#
# Disc length: 2271 seconds
#
# Revision: 1
# Processed by: cddbd v1.5.1PL0 Copyright (c) Steve Scherf et al.
# Submitted via: EasyCDDAExtractor 7.0.5.4
#
DISCID=9c08dd0c
DTITLE=Mensageiro and Mexicano
DYEAR=1900
DGENRE=
TTITLE0=Vai, Vai Saudade
TTITLE1=Ai Que Vontade Que Dá
TTITLE2=Fogo No Colchão
TTITLE3=Nem Amigos
TTITLE4=Café No Bule
TTITLE5=Suspenda A Saideira
TTITLE6=Bailão Do Zé Mané
TTITLE7=Amemrios
TTITLE8=Bando De Ratos
TTITLE9=O Cara
TTITLE10=Pisando No Calo
TTITLE11=Destino Cruel
EXTD=
EXTT0=
EXTT1=
EXTT2=
EXTT3=
EXTT4=
EXTT5=
EXTT6=
EXTT7=
EXTT8=
EXTT9=
EXTT10=
EXTT11=
PLAYORDER=
